<?xml version="1.0" standalone="no"?>
<!DOCTYPE svg PUBLIC "-//W3C//DTD SVG 20010904//EN"
 "http://www.w3.org/TR/2001/REC-SVG-20010904/DTD/svg10.dtd">
<svg version="1.0" xmlns="http://www.w3.org/2000/svg"
 width="400.000000pt" height="400.000000pt" viewBox="0 0 400.000000 400.000000"
 preserveAspectRatio="xMidYMid meet">
<metadata>
Created by potrace 1.11, written by Peter Selinger 2001-2013
</metadata>
<g transform="translate(0.000000,400.000000) scale(0.100000,-0.100000)"
fill="#000000" stroke="none">
<path d="M1860 3644 c-861 -83 -1510 -788 -1510 -1644 0 -799 566 -1475 1358
-1622 138 -25 398 -30 527 -10 250 40 482 131 695 273 136 90 344 300 439 442
272 410 350 902 216 1367 -84 291 -221 517 -446 735 -242 235 -540 384 -874
441 -92 15 -324 25 -405 18z m395 -209 c451 -80 840 -372 1051 -791 104 -207
148 -398 148 -644 0 -221 -29 -372 -110 -563 -160 -381 -490 -687 -877 -816
-176 -58 -282 -75 -472 -75 -233 0 -409 38 -611 134 -417 196 -704 551 -812
1004 -24 101 -27 129 -27 316 0 187 3 215 27 316 149 625 653 1068 1293 1138
73 8 299 -3 390 -19z"/>
<path d="M2286 3136 c-21 -8 -60 -28 -87 -45 -49 -30 -52 -31 -207 -35 -226
-6 -378 -50 -560 -162 -72 -45 -302 -258 -290 -269 3 -3 27 -1 55 4 44 9 59
19 114 76 63 66 153 132 237 174 24 13 46 20 49 17 3 -3 -4 -33 -16 -68 -16
-48 -34 -76 -77 -119 l-55 -56 119 -12 c65 -6 160 -20 211 -31 99 -20 121 -18
121 11 0 11 25 36 64 64 57 41 72 46 123 48 49 2 58 -1 61 -17 2 -10 -3 -23
-12 -28 -19 -11 -22 -68 -3 -68 7 0 41 29 77 65 l64 65 -17 52 c-16 49 -15 54
3 96 17 37 23 43 42 37 41 -11 210 -95 256 -126 24 -16 46 -28 48 -26 2 2 -11
35 -30 73 -32 68 -35 71 -102 101 -38 18 -100 42 -139 54 -38 11 -77 23 -85
26 -23 8 79 53 119 53 124 0 225 -100 293 -292 15 -44 28 -83 28 -87 0 -5 -26
-11 -57 -14 -113 -12 -419 -98 -504 -143 -26 -13 -31 -12 -61 6 -48 29 -109
26 -147 -6 l-31 -26 -93 20 c-297 65 -601 52 -781 -33 -71 -34 -158 -113 -185
-168 -63 -129 -39 -288 65 -444 24 -35 46 -80 50 -99 l6 -34 29 40 c27 37 29
46 30 142 1 57 4 113 7 125 7 21 8 20 38 -15 17 -20 34 -54 38 -75 l7 -38 87
82 c133 124 314 256 536 389 l28 17 -63 12 c-111 21 -353 25 -449 8 -102 -18
-189 -49 -222 -80 -31 -29 -66 -153 -83 -297 l-12 -105 -28 60 c-20 44 -29 81
-33 138 -6 97 11 147 74 209 145 146 461 186 842 107 64 -14 102 -26 102 -34
0 -7 -46 -39 -102 -71 -144 -81 -332 -209 -452 -308 -411 -338 -544 -679 -311
-798 51 -27 130 -48 178 -48 32 0 52 -11 130 -74 50 -41 131 -96 179 -121 87
-46 216 -95 249 -95 10 0 36 -24 58 -53 105 -139 244 -178 384 -109 137 68
259 212 368 439 38 77 80 175 94 218 40 119 92 330 112 453 l17 112 69 -67
c115 -114 193 -246 212 -360 22 -132 -68 -261 -224 -323 l-54 -21 27 33 c62
77 130 177 161 239 31 61 33 70 23 105 -17 64 -64 149 -119 215 l-52 62 -23
-114 c-50 -243 -148 -518 -240 -676 -14 -24 -22 -43 -18 -43 4 0 39 22 78 48
49 33 92 53 141 65 83 20 197 73 243 112 88 74 134 198 115 307 -24 141 -87
251 -234 403 l-96 100 4 150 c3 99 -1 194 -11 280 -8 71 -13 131 -10 134 2 2
39 -1 82 -7 147 -23 208 -76 206 -182 -1 -30 -8 -71 -16 -90 -14 -31 -16 -33
-23 -15 -17 46 -97 204 -108 213 -7 5 -27 12 -44 15 -30 6 -33 4 -33 -18 0
-13 22 -66 49 -117 48 -89 92 -206 105 -275 l6 -33 -50 0 -50 0 0 -43 c0 -38
5 -48 46 -87 25 -25 65 -71 89 -102 39 -51 43 -55 49 -35 11 42 6 194 -9 283
l-16 88 27 59 c63 141 55 240 -26 319 -56 54 -114 75 -231 85 l-76 6 -17 61
c-43 157 -139 296 -237 346 -55 29 -158 36 -213 16z m-502 -232 c19 -48 -29
-94 -98 -94 -38 0 -41 4 -30 58 5 25 13 31 48 40 60 14 73 14 80 -4z m935
-341 c16 -102 26 -327 17 -385 l-7 -46 -109 73 c-109 73 -351 198 -447 232
-34 11 -53 23 -53 33 0 36 427 167 551 169 l37 1 11 -77z m-669 -55 c11 -12
20 -32 20 -45 0 -30 -42 -73 -70 -73 -29 0 -70 44 -70 75 0 58 79 87 120 43z
m249 -194 c130 -61 259 -136 350 -204 l78 -58 -13 -98 c-36 -262 -130 -578
-226 -754 -97 -179 -219 -318 -320 -365 -77 -36 -159 -35 -219 3 -24 16 -52
38 -62 49 -18 21 -18 21 147 25 l166 4 56 54 c99 98 190 251 264 444 65 171
140 486 140 589 0 49 -26 51 -36 2 -4 -25 -19 -46 -53 -74 -46 -38 -49 -39
-89 -29 -40 10 -42 12 -53 67 -9 46 -24 74 -88 156 l-76 100 -132 6 -131 5
-45 37 c-25 20 -51 37 -58 37 -7 0 -42 -17 -78 -37 l-66 -38 50 -5 c28 -3 70
-15 95 -27 25 -13 105 -34 179 -48 74 -14 135 -26 136 -27 1 -2 39 -59 85
-128 46 -69 84 -126 84 -127 1 -1 35 -9 76 -18 41 -9 76 -18 78 -20 3 -3 0
-37 -7 -77 -11 -69 -15 -76 -68 -130 l-56 -57 -17 -103 c-16 -100 -18 -105
-76 -184 l-59 -82 -112 -34 -113 -35 -44 76 c-82 143 -81 140 -56 166 l21 23
-51 135 c-58 153 -51 147 -179 147 -133 0 -131 -1 -206 121 l-66 108 16 59 c8
33 15 65 15 72 0 6 -28 -10 -62 -37 -75 -59 -258 -241 -258 -258 0 -6 16 -32
35 -57 32 -40 36 -53 42 -125 5 -72 4 -82 -18 -116 -13 -20 -28 -35 -34 -34
-5 2 -34 49 -62 105 l-53 102 -21 -42 c-20 -40 -20 -43 -4 -77 9 -20 42 -73
72 -119 30 -46 53 -85 52 -86 -10 -9 -117 28 -147 51 -211 161 169 640 775
978 l103 57 46 -22 c40 -20 51 -21 83 -11 21 6 45 19 55 30 17 18 18 18 69 -1
29 -11 94 -39 146 -64z"/>
</g>
</svg>
